# xmcd
#
# Track frame offsets: 
#        150
#        21650
#        44649
#        72097
#        100200
#        123766
#        147649
#        169862
#        195384
#        219377
#
# Disc length: 3204 seconds
#
# Revision: 0
# Processed by: cddbd v1.5.2PL0 Copyright (c) Steve Scherf et al.
# Submitted via: ExactAudioCopy v1.0b3
#
DISCID=950c820a
DTITLE=Truong Vu - Xa Nguoi Minh Yeu
DYEAR=2000
DGENRE=
TTITLE0=Xa nguoi minh yeu
TTITLE1=Nhu the tim chim
TTITLE2=Nguoi giau cung khoc
TTITLE3=Hong Truc - Tinh ngan doi bo
TTITLE4=Nguoi da thay long
TTITLE5=Xua di huyen thoai
TTITLE6=Tien em theo chong
TTITLE7=Hong Truc - Phan ma hong
TTITLE8=Dam cuoi ngheo
TTITLE9=Nang yeu hoa tim
EXTD=
EXTT0=
EXTT1=
EXTT2=
EXTT3=
EXTT4=
EXTT5=
EXTT6=
EXTT7=
EXTT8=
EXTT9=
PLAYORDER=
